<svg width="512" height="512" xmlns="http://www.w3.org/2000/svg">
 <!-- Created with Method Draw - http://github.com/duopixel/Method-Draw/ -->

 <g>
  <title>background</title>
  <rect x="-1" y="-1" width="514" height="514" id="canvas_background" fill="#fff"/>
  <g id="canvasGrid" display="none">
   <rect id="svg_1" width="100%" height="100%" x="0" y="0" stroke-width="0" fill="url(#gridpattern)"/>
  </g>
 </g>
 <g>
  <title>Layer 1</title>
  <rect fill="#DDDDDD" stroke="#ffffff" stroke-width="1.5" x="-18.160715" y="-11.993303" width="539" height="527" id="svg_2"/>
  <g id="svg_8" stroke="null">
   <path fill="#563d7c" d="m256.04031,429.864438c0,47.81273 -24.7195,86.93223 -54.93222,86.93223l-219.72889,0c-30.21272,0 -54.93222,-39.1195 -54.93222,-86.93223l0,-347.72891c0,-47.81272 24.7195,-86.93222 54.93222,-86.93222l219.72889,0c30.21272,0 54.93222,39.1195 54.93222,86.93222l0,347.72891z" id="svg_6" stroke="null"/>
   <path fill="#fff" d="m16.00804,108.556108l93.43864,0c17.23363,0 31.0744,6.22162 41.46844,18.75009s15.61798,31.36379 15.61798,56.67641c0,15.34098 -2.36962,28.46604 -7.10887,39.37518c-4.73925,10.90914 -11.525,19.43191 -20.35724,25.39785l0,0.85227c11.84813,4.00571 20.84193,12.86938 26.92756,26.59104c6.08563,13.80688 9.15537,31.02287 9.15537,51.81842c0,11.93188 -1.34638,23.0967 -4.03913,33.40925c-2.69276,10.39778 -6.89346,19.34668 -12.65596,26.84672s-13.08679,13.46597 -22.0806,17.89781s-19.65711,6.64776 -32.04379,6.64776l-88.3224,0l0,-304.26279l0,-0.00001zm33.65945,127.41537l54.93223,0c8.07826,0 14.81015,-3.57956 20.19566,-10.90914s8.07827,-17.72735 8.07827,-31.36378c0,-15.34098 -2.42348,-26.1649 -7.27044,-32.38652s-11.84813,-9.37504 -21.0035,-9.37504l-54.93222,0l0,84.03448zm0,133.38131l59.50991,0c10.23247,0 18.20303,-4.17615 23.80396,-12.61369c5.65479,-8.35231 8.50911,-20.28419 8.50911,-35.62517c0,-15.0853 -2.80047,-26.59103 -8.50911,-34.77289s-13.57149,-12.10233 -23.80396,-12.10233l-59.50991,0l0,95.11408z" id="svg_7" stroke="null"/>
  </g>
  <g id="svg_13" stroke="null">
   <path fill="#6a1b9a" d="m460.33733,138.53547l-96.19268,102.00867l-50.62772,-46.36758l-15.18832,7.72793l0,108.19102l15.18832,7.72793l50.62772,-46.36758l96.19268,102.00867l40.50217,-18.54703l0,-197.835l-40.50217,-18.54703zm-141.75763,92.73515l25.31386,24.72938l-25.31386,24.72937l0,-49.45875zm81.00436,24.72938l50.62772,-43.27641l0,86.55281l-50.62772,-43.2764z" id="svg_12" stroke="null"/>
  </g>
  <rect stroke="#ffffff" id="svg_3" height="512" width="56" y="0" x="200" stroke-opacity="null" stroke-width="0" fill="#563d7c"/>
  <text stroke="#563d7c" font-style="normal" font-weight="bold" transform="matrix(1.2570576300284564,0,0,1.2910095765311917,-67.30966614525082,141.59551427216562) " fill="#fffa8d" stroke-width="5" x="190.986586" y="151.031344" id="svg_14" font-size="180" font-family="Arvo, sans-serif" text-anchor="start" xml:space="preserve">4</text>
 </g>
</svg>