<svg width="512" height="512" xmlns="http://www.w3.org/2000/svg">
 <!-- Created with Method Draw - http://github.com/duopixel/Method-Draw/ -->

 <g>
  <title>background</title>
  <rect fill="#fff" id="canvas_background" height="514" width="514" y="-1" x="-1"/>
  <g display="none" overflow="visible" y="0" x="0" height="100%" width="100%" id="canvasGrid">
   <rect fill="url(#gridpattern)" stroke-width="0" y="0" x="0" height="100%" width="100%"/>
  </g>
 </g>
 <g>
  <title>Layer 1</title>
  <rect id="svg_2" height="527" width="539" y="-11.993303" x="-18.160715" stroke-width="1.5" stroke="#ffffff" fill="#DDDDDD"/>
  <g stroke="null" id="svg_8">
   <path stroke="null" id="svg_6" d="m256.040308,429.864442c0,47.812725 -24.719499,86.932227 -54.932221,86.932227l-219.728884,0c-30.212722,0 -54.932221,-39.119502 -54.932221,-86.932227l0,-347.728907c0,-47.812725 24.719499,-86.932227 54.932221,-86.932227l219.728884,0c30.212722,0 54.932221,39.119502 54.932221,86.932227l0,347.728907z" fill="#563d7c"/>
   <path stroke="null" id="svg_7" d="m16.008045,108.556114l93.438631,0c17.233638,0 31.074403,6.22162 41.468441,18.750088s15.617984,31.363784 15.617984,56.676403c0,15.340981 -2.369625,28.466043 -7.108876,39.375185c-4.73925,10.909142 -11.524995,19.431909 -20.357235,25.397847l0,0.852277c11.848126,4.005701 20.841931,12.869379 26.927559,26.591034c6.085628,13.806883 9.15537,31.022873 9.15537,51.818425c0,11.931874 -1.346378,23.096699 -4.039134,33.409248c-2.692756,10.397776 -6.893455,19.346682 -12.655953,26.846717s-13.086794,13.465972 -22.080599,17.897811s-19.657118,6.647759 -32.043796,6.647759l-88.322394,0l0,-304.262793zm33.659449,127.415371l54.932221,0c8.078268,0 14.810158,-3.579562 20.195669,-10.909142s8.078268,-17.727356 8.078268,-31.363784c0,-15.340981 -2.42348,-26.164896 -7.270441,-32.386516s-11.848126,-9.375044 -21.003496,-9.375044l-54.932221,0l0,84.034486zm0,133.381309l59.509906,0c10.232473,0 18.20303,-4.176156 23.803962,-12.613696c5.654787,-8.352312 8.509109,-20.284186 8.509109,-35.625167c0,-15.085298 -2.800466,-26.591034 -8.509109,-34.772891s-13.57149,-12.10233 -23.803962,-12.10233l-59.509906,0l0,95.114083z" fill="#fff"/>
  </g>
  <g stroke="null" id="svg_13">
   <path stroke="null" id="svg_12" d="m460.337325,138.535467l-96.192673,102.008671l-50.627723,-46.367578l-15.188317,7.72793l0,108.191015l15.188317,7.72793l50.627723,-46.367578l96.192673,102.008671l40.502178,-18.547031l0,-197.834999l-40.502178,-18.547031zm-141.757624,92.735156l25.313861,24.729375l-25.313861,24.729375l0,-49.45875zm81.004357,24.729375l50.627723,-43.276406l0,86.552812l-50.627723,-43.276406z" fill="#6a1b9a"/>
  </g>
  <text xml:space="preserve" text-anchor="start" font-family="Helvetica, Arial, sans-serif" font-size="180" id="svg_14" y="318.621136" x="188.336226" stroke-width="5" stroke="#563d7c" fill="#ffffff">4</text>
 </g>
</svg>